<svg width="361" height="360" viewBox="0 0 361 360" fill="none" xmlns="http://www.w3.org/2000/svg">
<g opacity="0.8">
<rect opacity="0.2" x="0.534668" y="180.358" width="180.039" height="180.041" transform="rotate(-90 0.534668 180.358)" fill="white"/>
<path opacity="0.2" d="M1.37842 180.358L96.8449 87.5045L180.576 1.16111L180.576 180.358L1.37842 180.358Z" fill="white"/>
<path opacity="0.14" d="M1.65845 270.661C1.65845 258.913 3.97236 247.28 8.46808 236.426C12.9638 225.573 19.5533 215.711 27.8603 207.404C36.1673 199.097 46.0291 192.507 56.8828 188.012C67.7364 183.516 79.3692 181.202 91.1171 181.202C102.865 181.202 114.498 183.516 125.351 188.012C136.205 192.508 146.067 199.097 154.374 207.404C162.681 215.711 169.27 225.573 173.766 236.426C178.262 247.28 180.576 258.913 180.576 270.661L91.1171 270.661H1.65845Z" fill="white"/>
<path opacity="0.07" d="M360.617 1.1611L264.701 94.4522L180.576 181.202L180.576 1.16109L360.617 1.1611Z" fill="white"/>
<path opacity="0.28" d="M180.576 359.732C180.576 347.984 178.262 336.351 173.766 325.497C169.27 314.644 162.681 304.782 154.374 296.475C146.067 288.168 136.205 281.578 125.351 277.083C114.498 272.587 102.865 270.273 91.117 270.273C79.3692 270.273 67.7363 272.587 56.8827 277.083C46.0291 281.578 36.1672 288.168 27.8602 296.475C19.5532 304.782 12.9638 314.644 8.46804 325.497C3.97233 336.351 1.65841 347.984 1.65842 359.732L91.1171 359.732L180.576 359.732Z" fill="white"/>
</g>
</svg>
